<?xml version="1.0" encoding="UTF-8"?>
<!DOCTYPE svg PUBLIC "-//W3C//DTD SVG 1.1//EN" "http://www.w3.org/Graphics/SVG/1.1/DTD/svg11.dtd">
<!-- Creator: CorelDRAW -->
<svg xmlns="http://www.w3.org/2000/svg" xml:space="preserve" width="1.70666in" height="1.70666in" version="1.1" style="shape-rendering:geometricPrecision; text-rendering:geometricPrecision; image-rendering:optimizeQuality; fill-rule:evenodd; clip-rule:evenodd"
viewBox="0 0 1707 1707"
 xmlns:xlink="http://www.w3.org/1999/xlink">
 <defs>
  <style type="text/css">
   <![CDATA[
    .fil0 {fill:black}
    .fil2 {fill:#5CC61C}
    .fil1 {fill:#85D2E6}
   ]]>
  </style>
 </defs>
 <g id="Layer_x0020_1">
  <metadata id="CorelCorpID_0Corel-Layer"/>
  <path class="fil0" d="M825 1626c0,-8 0,-17 2,-26 2,-12 4,-24 6,-36 11,-68 16,-106 -15,-137 -10,-10 -20,-19 -29,-27 -26,-23 -51,-45 -50,-79 0,-32 23,-55 44,-72 0,0 0,0 0,0 0,-5 -4,-17 -7,-25 -8,-23 -20,-58 2,-90 20,-29 60,-43 135,-45 229,-9 312,177 316,185 0,2 1,4 1,5 1,1 12,38 41,54 16,9 35,9 58,2 33,-10 60,-9 83,4 10,5 18,12 25,21 106,-123 175,-279 187,-451 -34,-6 -72,-27 -118,-55 -73,-44 -122,-26 -174,-8 -43,16 -91,34 -139,-1 -58,-42 -37,-104 -23,-145 17,-49 25,-81 -6,-116 -36,-39 -70,-55 -100,-68 -37,-17 -88,-40 -77,-116 2,-12 4,-24 6,-36 12,-68 17,-106 -15,-137 -10,-10 -20,-19 -29,-27 -26,-23 -50,-45 -50,-79 0,-14 5,-27 13,-38 -20,-2 -39,-3 -59,-3 -88,0 -173,15 -251,43 47,57 82,128 101,204 20,83 67,105 117,128 41,20 88,42 98,100 11,71 -48,99 -86,118 -47,23 -76,40 -78,87 -3,53 10,88 22,119 14,38 34,91 -28,136 -36,27 -67,30 -88,30 0,0 0,0 0,0 0,0 0,1 0,2 0,14 1,28 2,39 2,35 4,68 -21,92 -23,22 -56,22 -82,20 0,0 0,-1 0,-1 -4,4 -10,16 -13,23 -11,22 -27,55 -65,62 -4,1 -9,1 -13,1 -32,0 -67,-20 -114,-64 -134,-123 -115,-270 -101,-327l3 -12c1,-2 1,-4 2,-6 -7,-3 -15,-8 -23,-12 -9,-4 -18,-9 -29,-15 -31,-16 -49,-36 -56,-61 -11,-36 7,-68 20,-92 4,-7 10,-19 12,-25 -1,0 -2,-1 -3,-1 -12,-4 -49,1 -77,5 -14,58 -22,118 -22,180 0,417 332,758 745,773zm632 -171c-2,3 -5,6 -8,8 -145,142 -340,232 -555,242 0,0 -1,0 -2,0 -12,1 -26,1 -39,1 -470,0 -853,-382 -853,-853 0,-77 11,-152 30,-223 1,-2 1,-3 2,-5 69,-248 247,-451 480,-553 2,-2 5,-3 8,-4 102,-43 215,-68 333,-68 470,0 853,382 853,852l0 0 0 1 0 0 0 0 0 1c0,2 0,5 0,8l0 3c-3,230 -98,439 -249,590zm-78 -36c-2,-5 -4,-9 -5,-10l0 0c0,0 -6,-2 -21,3 -44,13 -86,10 -121,-9 -52,-29 -73,-83 -78,-99 -8,-17 -73,-142 -238,-136 -45,2 -63,8 -70,11 1,5 4,13 6,19 9,26 26,76 -18,113 -6,4 -10,8 -12,11 5,5 13,12 20,18 10,9 21,19 32,30 63,63 50,136 37,208 -2,11 -3,22 -5,34 -1,6 -2,10 -1,12 183,-12 348,-87 474,-205zm-856 -1264c-182,86 -326,243 -396,434 41,-5 72,-3 94,10 68,44 34,107 19,134 -5,9 -14,25 -14,31l0 0c0,0 3,5 17,12 11,6 20,11 28,15 57,29 79,44 62,109l-2 11c-11,43 -25,155 77,250 33,30 50,39 57,41 3,-4 6,-12 9,-17 12,-25 35,-72 93,-67 7,1 12,1 16,1 0,-8 -1,-19 -1,-28 -1,-13 -2,-27 -2,-44 0,-23 2,-49 20,-66 18,-17 39,-17 54,-16 15,0 27,0 47,-14 13,-10 13,-10 0,-44 -13,-35 -31,-82 -27,-151 5,-97 76,-131 122,-154 43,-21 44,-25 43,-34 -3,-15 -14,-22 -53,-40 -52,-25 -132,-62 -161,-182 -18,-73 -54,-140 -102,-191zm1103 672c-12,-361 -274,-661 -618,-731 -4,5 -9,10 -14,15 -6,5 -9,8 -12,11 5,5 13,12 20,18 10,9 21,19 33,30 62,63 49,136 37,208 -2,11 -4,22 -6,34 -2,16 -2,16 31,31 34,15 79,36 126,88 65,71 39,146 23,195 -16,45 -14,49 -7,54 12,9 26,6 66,-9 55,-19 137,-49 242,15 34,20 60,35 79,41z"/>
  <path class="fil1" d="M825 1626c0,-8 0,-17 2,-26 2,-12 4,-24 6,-36 11,-68 16,-106 -15,-137 -10,-10 -20,-19 -29,-27 -26,-23 -51,-45 -50,-79 0,-32 23,-55 44,-72 0,0 0,0 0,0 0,-5 -4,-17 -7,-25 -8,-23 -20,-58 2,-90 20,-29 60,-43 135,-45 229,-9 312,177 316,185 0,2 1,4 1,5 1,1 12,38 41,54 16,9 35,9 58,2 33,-10 60,-9 83,4 10,5 18,12 25,21 106,-123 175,-279 187,-451 -34,-6 -72,-27 -118,-55 -73,-44 -122,-26 -174,-8 -43,16 -91,34 -139,-1 -58,-42 -37,-104 -23,-145 17,-49 25,-81 -6,-116 -36,-39 -70,-55 -100,-68 -37,-17 -88,-40 -77,-116 2,-12 4,-24 6,-36 12,-68 17,-106 -15,-137 -10,-10 -20,-19 -29,-27 -26,-23 -50,-45 -50,-79 0,-14 5,-27 13,-38 -20,-2 -39,-3 -59,-3 -88,0 -173,15 -251,43 47,57 82,128 101,204 20,83 67,105 117,128 41,20 88,42 98,100 11,71 -48,99 -86,118 -47,23 -76,40 -78,87 -3,53 10,88 22,119 14,38 34,91 -28,136 -36,27 -67,30 -88,30l0 0 0 2c0,14 1,28 2,39 2,35 4,68 -21,92 -23,22 -56,22 -82,20l0 -1c-4,4 -10,16 -13,23 -11,22 -27,55 -65,62 -4,1 -9,1 -13,1 -32,0 -67,-20 -114,-64 -134,-123 -115,-270 -101,-327l3 -12 2 -6c-7,-3 -15,-8 -23,-12 -9,-4 -18,-9 -29,-15 -31,-16 -49,-36 -56,-61 -11,-36 7,-68 20,-92 4,-7 10,-19 12,-25l-3 -1c-12,-4 -49,1 -77,5 -14,58 -22,118 -22,180 0,417 332,758 745,773z"/>
  <path class="fil2" d="M474 1185c12,-25 35,-72 93,-67 7,1 12,1 16,1 0,-8 -1,-19 -1,-28 -1,-13 -2,-27 -2,-44 0,-23 2,-49 20,-66 18,-17 39,-17 54,-16 15,0 27,0 47,-14 13,-10 13,-10 0,-44 -13,-35 -31,-82 -27,-151 5,-97 76,-131 122,-154 43,-21 44,-25 43,-34 -3,-15 -14,-22 -53,-40 -52,-25 -132,-62 -161,-182 -18,-73 -54,-140 -102,-191 -182,86 -326,243 -396,434 41,-5 72,-3 94,10 68,44 34,107 19,134 -5,9 -14,25 -14,31 0,0 3,5 17,12 11,6 20,11 28,15 57,29 79,44 62,109l-2 11c-11,43 -25,155 77,250 33,30 50,39 57,41 3,-4 6,-12 9,-17z"/>
  <path class="fil2" d="M852 1198c9,26 26,76 -18,113 -6,4 -10,8 -12,11 5,5 13,12 20,18 10,9 21,19 32,30 63,63 50,136 37,208 -2,11 -3,22 -5,34 -1,6 -2,10 -1,12 183,-12 348,-87 474,-205 -2,-5 -4,-9 -5,-10 0,0 -6,-2 -21,3 -44,13 -86,10 -121,-9 -52,-29 -73,-83 -78,-99 -8,-17 -73,-142 -238,-136 -45,2 -63,8 -70,11 1,5 4,13 6,19z"/>
  <path class="fil2" d="M1223 531c65,71 39,146 23,195 -16,45 -14,49 -7,54 12,9 26,6 66,-9 55,-19 137,-49 242,15 34,20 60,35 79,41 -12,-361 -274,-661 -618,-731 -4,5 -9,10 -14,15 -6,5 -9,8 -12,11 5,5 13,12 20,18 10,9 21,19 33,30 62,63 49,136 37,208 -2,11 -4,22 -6,34 -2,16 -2,16 31,31 34,15 79,36 126,88z"/>
 </g>
</svg>
