<?xml version="1.0" encoding="UTF-8"?>
<!DOCTYPE svg PUBLIC "-//W3C//DTD SVG 1.1//EN" "http://www.w3.org/Graphics/SVG/1.1/DTD/svg11.dtd">
<!-- Creator: CorelDRAW -->
<svg xmlns="http://www.w3.org/2000/svg" xml:space="preserve" width="512px" height="512px" version="1.1" style="shape-rendering:geometricPrecision; text-rendering:geometricPrecision; image-rendering:optimizeQuality; fill-rule:evenodd; clip-rule:evenodd"
viewBox="0 0 512 512"
 xmlns:xlink="http://www.w3.org/1999/xlink">
 <defs>
  <style type="text/css">
   <![CDATA[
    .fil0 {fill:#4D4D4D}
    .fil2 {fill:#99A4AC}
    .fil1 {fill:#D9F2F2}
   ]]>
  </style>
 </defs>
 <g id="Layer_x0020_1">
  <metadata id="CorelCorpID_0Corel-Layer"/>
  <path class="fil0" d="M443 391l-231 0c-29,0 -54,-18 -65,-43l-77 0c-63,0 -94,-77 -48,-121 11,-11 25,-17 40,-19 -10,-44 23,-87 68,-87 25,0 48,14 60,35 37,-14 77,5 90,41 14,-4 28,-3 41,2 26,-44 90,-46 119,-3 11,16 14,36 10,55 35,4 62,35 62,70 0,38 -31,70 -69,70zm-300 -58c-9,-50 37,-91 85,-80 3,-23 18,-42 39,-52 -12,-30 -47,-43 -77,-29 -4,2 -8,0 -10,-3 -19,-40 -72,-44 -96,-8 -10,15 -12,35 -5,52 1,5 -2,10 -7,10 -15,-1 -30,5 -41,15 -36,35 -10,95 38,95l74 0zm138 -122c-3,2 -5,1 -6,2 -20,7 -33,26 -34,49 0,5 -5,8 -10,6 -38,-11 -74,15 -74,53 0,30 24,55 55,55l231 0c49,0 73,-61 37,-95 -10,-11 -25,-16 -40,-16 -6,0 -9,-5 -7,-10 15,-39 -14,-76 -51,-76 -22,0 -41,12 -51,32 -6,13 -18,-9 -50,0z"/>
  <path class="fil1" d="M212 376l231 0c49,0 73,-61 37,-95 -10,-11 -25,-16 -40,-16 -6,0 -9,-5 -7,-10 15,-39 -14,-76 -51,-76 -22,0 -41,12 -51,32 -6,13 -18,-9 -50,0 -3,2 -5,1 -6,2 -20,7 -33,26 -34,49 0,5 -5,8 -10,6 -38,-11 -74,15 -74,53 0,30 24,55 55,55z"/>
  <path class="fil2" d="M143 333c-9,-50 37,-91 85,-80 3,-23 18,-42 39,-52 -12,-30 -47,-43 -77,-29 -4,2 -8,0 -10,-3 -19,-40 -72,-44 -96,-8 -10,15 -12,35 -5,52 1,5 -2,10 -7,10 -15,-1 -30,5 -41,15 -36,35 -10,95 38,95l74 0z"/>
 </g>
</svg>
