<?xml version="1.0" encoding="UTF-8" standalone="no"?> <svg width="64" height="64" viewBox="0 0 64 64" fill="none" xmlns="http://www.w3.org/2000/svg">
<path d="M52.7 16.57C51.9933 15.0602 50.9481 13.7335 49.6457 12.693C48.3433 11.6524 46.8186 10.926 45.19 10.57C44.1429 8.22835 42.4912 6.20764 40.4048 4.71543C38.3184 3.22322 35.8724 2.3133 33.3179 2.07914C30.7635 1.84498 28.1928 2.29501 25.8698 3.38301C23.5469 4.47101 21.5554 6.15776 20.1 8.27001C19.7679 8.23332 19.4341 8.21329 19.1 8.21001C16.8121 8.21046 14.5831 8.93546 12.7327 10.281C10.8823 11.6266 9.50559 13.5236 8.79999 15.7C6.72958 16.1618 4.89706 17.3591 3.64266 19.0698C2.38825 20.7805 1.7972 22.8882 1.97923 25.0016C2.16125 27.1151 3.10399 29.0907 4.63242 30.5617C6.16084 32.0327 8.17111 32.8991 10.29 33H19.14C19.3703 33.8474 19.873 34.5954 20.5706 35.1287C21.2682 35.6621 22.1219 35.951 23 35.951C23.8781 35.951 24.7318 35.6621 25.4294 35.1287C26.127 34.5954 26.6297 33.8474 26.86 33H37.62C37.2646 33.6112 37.0526 34.295 37 35C37 36.0609 37.4214 37.0783 38.1716 37.8284C38.9217 38.5786 39.9391 39 41 39C42.0609 39 43.0783 38.5786 43.8284 37.8284C44.5786 37.0783 45 36.0609 45 35C44.9474 34.295 44.7354 33.6112 44.38 33H53.75C54.8815 33.0096 56.0028 32.7864 57.0444 32.3442C58.0859 31.902 59.0253 31.2502 59.8043 30.4295C60.5832 29.6087 61.185 28.6365 61.5721 27.5733C61.9593 26.51 62.1236 25.3785 62.0549 24.2491C61.9862 23.1197 61.6858 22.0164 61.1725 21.008C60.6593 19.9996 59.944 19.1076 59.0713 18.3873C58.1986 17.6671 57.1871 17.1341 56.0996 16.8215C55.0121 16.5088 53.872 16.4232 52.75 16.57H52.7ZM21.27 33H24.72Z" fill="white"/>
<path d="M32 39.5L31.26 40.33C30.71 40.94 28 44.06 28 46C28 47.0609 28.4214 48.0783 29.1716 48.8284C29.9217 49.5786 30.9391 50 32 50C33.0609 50 34.0783 49.5786 34.8284 48.8284C35.5786 48.0783 36 47.0609 36 46C36 44.06 33.29 40.94 32.74 40.33L32 39.5Z" fill="#FFFFFF"/>
<path d="M23 51.5L22.26 52.33C21.71 52.94 19 56.06 19 58C19 59.0609 19.4214 60.0783 20.1716 60.8284C20.9217 61.5786 21.9391 62 23 62C24.0609 62 25.0783 61.5786 25.8284 60.8284C26.5786 60.0783 27 59.0609 27 58C27 56.06 24.29 52.94 23.74 52.33L23 51.5Z" fill="#FFFFFF"/>
<path d="M41 51.5L40.26 52.33C39.71 52.94 37 56.06 37 58C37 59.0609 37.4214 60.0783 38.1716 60.8284C38.9217 61.5786 39.9391 62 41 62C42.0609 62 43.0783 61.5786 43.8284 60.8284C44.5786 60.0783 45 59.0609 45 58C45 56.06 42.29 52.94 41.74 52.33L41 51.5Z" fill="#FFFFFF"/>
<path d="M14 39.5L13.26 40.33C12.71 40.94 10 44.06 10 46C10 47.0609 10.4214 48.0783 11.1716 48.8284C11.9217 49.5786 12.9391 50 14 50C15.0609 50 16.0783 49.5786 16.8284 48.8284C17.5786 48.0783 18 47.0609 18 46C18 44.06 15.29 40.94 14.74 40.33L14 39.5Z" fill="#FFFFFF"/>
<path d="M50 39.5L49.26 40.33C48.71 40.94 46 44.06 46 46C46 47.0609 46.4214 48.0783 47.1716 48.8284C47.9217 49.5786 48.9391 50 50 50C51.0609 50 52.0783 49.5786 52.8284 48.8284C53.5786 48.0783 54 47.0609 54 46C54 44.06 51.29 40.94 50.74 40.33L50 39.5Z" fill="#FFFFFF"/>
</svg>
